<svg width="128" height="128" viewBox="0 0 128 128" fill="none" xmlns="http://www.w3.org/2000/svg">
    <g clip-path="url(#clip0_1_2)">
        <rect x="64" y="-11" width="106" height="106" rx="33" transform="rotate(45 64 -11)" fill="#BDC2EC" />
        <rect x="63.7107" y="-7" width="100" height="100" rx="33" transform="rotate(45 63.7107 -7)"
            fill="url(#paint0_linear_1_2)" />
        <path
            d="M84.0453 45.2212L84.3032 44.4509L83.546 44.401C82.2407 44.3325 80.9865 43.9393 79.8851 43.2532C78.7388 42.507 77.3929 42.1392 76.0102 42.1943C75.2837 42.2085 74.562 42.414 73.9107 42.792C73.2595 43.17 72.6994 43.7086 72.2815 44.3586C71.7411 45.1981 71.4094 46.159 71.3189 47.1474C71.6985 46.7791 72.1025 46.4401 72.5272 46.133C73.4652 45.4945 74.5379 45.1309 75.6276 45.0819C76.6783 45.0328 77.7115 45.2434 78.6445 45.6967C77.675 45.4516 76.6563 45.425 75.6533 45.6185C75.171 45.7086 74.6981 45.8626 74.2461 46.0768C73.8073 46.2965 73.3889 46.5625 72.9976 46.8705C72.2256 47.5343 71.5444 48.3089 70.976 49.1696C70.3937 50.0277 69.8847 50.936 69.4554 51.8832L70.5464 52.3588C70.9703 51.5264 71.4484 50.7235 71.9769 49.9562C72.5415 50.7272 73.2922 51.3221 74.1577 51.6846C74.9601 52.0337 75.8299 52.2057 76.7157 52.1904C81.701 52.0872 83.9298 45.4861 84.0453 45.2212Z"
            fill="white" />
        <path
            d="M93.5 59.8125C93.6667 59.5625 93.8958 59.3958 94.1875 59.3125H94.375C94.5833 59.3125 94.7917 59.3958 95 59.5625C95.25 59.6875 95.375 59.9167 95.375 60.25C95.2917 61.375 95.125 62.5 94.875 63.625C94.875 63.7083 94.8542 63.7917 94.8125 63.875L94.6875 64.5C94.0625 67.25 93.0833 69.9167 91.75 72.5C91.3333 73.4167 90.9375 74.2708 90.5625 75.0625C89.6875 77.4375 88.3125 79.7917 86.4375 82.125C84.5625 84.4583 82.1875 85.625 79.3125 85.625C76.1458 85.625 74.0833 84.3333 73.125 81.75C72.3333 79.625 71.9375 77.2292 71.9375 74.5625C71.9375 73.9792 72 72.6875 72.125 70.6875C72.25 68.6458 72.5208 66.2708 72.9375 63.5625C73.1458 62.3125 73.2917 61.25 73.375 60.375C73.4167 60.0417 73.5 59.5833 73.625 59C73.75 58.2917 73.875 57.5208 74 56.6875C74.0417 56.2708 74.0625 55.8958 74.0625 55.5625C74.0625 55.2292 74.0417 54.8542 74 54.4375C73.9583 53.9792 73.7292 53.7292 73.3125 53.6875C72.6458 53.7708 72.0417 54.3333 71.5 55.375C70.9583 56.375 70.5 57.3958 70.125 58.4375C69.9167 58.9375 69.75 59.3542 69.625 59.6875C69.125 60.8542 68.6875 62.0417 68.3125 63.25C67.9375 64.625 67.4792 65.9167 66.9375 67.125C66.0208 68.8333 64.625 69.9167 62.75 70.375C62.4167 70.4583 62.1042 70.5 61.8125 70.5C60.9375 70.5 60.1458 70.25 59.4375 69.75C58.8125 69.2083 58.3958 68.5625 58.1875 67.8125C58.0208 67.0208 57.9375 66.2083 57.9375 65.375C57.9375 65.0833 58 64.375 58.125 63.25C58.2917 62.0833 58.4375 60.7708 58.5625 59.3125C58.7292 57.8125 58.7917 56.5208 58.75 55.4375C58.75 54.3542 58.5625 53.7708 58.1875 53.6875C57.5208 53.7708 56.9167 54.3333 56.375 55.375C55.8333 56.375 55.375 57.3958 55 58.4375C54.8333 58.9375 54.6667 59.3542 54.5 59.6875C54.5 59.7292 54.4792 59.7917 54.4375 59.875C51.8542 64.75 50.0208 69.9167 48.9375 75.375C48.7708 76.7083 48.4167 77.8958 47.875 78.9375C47.3333 79.9375 46.3125 80.5625 44.8125 80.8125H44.25C42 80.8125 40.5 79.6875 39.75 77.4375C38.7917 72.6458 38.3125 67.8125 38.3125 62.9375C38.3125 58.8542 38.6458 54.7292 39.3125 50.5625C39.7708 49.3958 40.5 48.4583 41.5 47.75C42.4167 47.25 43.3125 47 44.1875 47C45.1875 47 46.1458 47.3333 47.0625 48C47.7292 48.625 48.3125 49.375 48.8125 50.25C48.8125 53.5417 48.8958 56.8333 49.0625 60.125C49.1042 60.875 49.1458 61.6042 49.1875 62.3125L49.0625 64.4375C49.0208 64.9792 49 65.5208 49 66.0625C49.9167 62.3958 51.1458 58.8333 52.6875 55.375C53.4792 53.375 54.5833 51.4375 56 49.5625C57.1667 47.9792 58.75 47.1875 60.75 47.1875C61.0833 47.1875 61.4167 47.2083 61.75 47.25C63.6667 47.6667 65.1042 48.5833 66.0625 50C67.0625 51.375 67.7292 52.9583 68.0625 54.75C68.8542 52.7917 69.9375 50.9792 71.3125 49.3125C72.4792 47.8958 74 47.1875 75.875 47.1875C76.2083 47.1875 76.5417 47.2083 76.875 47.25C79.75 48 81.6458 49.7292 82.5625 52.4375C83.2292 54.5625 83.5625 56.625 83.5625 58.625C83.5625 59.2083 83.5417 59.7917 83.5 60.375C83.2917 62.375 82.9375 64.3542 82.4375 66.3125C82.1458 67.5625 81.875 68.8333 81.625 70.125C81.625 70.25 81.6042 70.4167 81.5625 70.625C81.3542 71.5833 81.1667 72.8333 81 74.375C80.9583 74.9583 80.9375 75.5 80.9375 76C80.9375 76.875 81.0208 77.6667 81.1875 78.375C81.3958 79.125 81.8125 79.5 82.4375 79.5C82.7708 79.5 83.125 79.4167 83.5 79.25C84.9583 78.4583 86.125 77.2292 87 75.5625C87.875 73.8542 88.5833 72.2292 89.125 70.6875C89.2083 70.4792 89.2708 70.2708 89.3125 70.0625C89.6875 69.1042 90.0417 68.125 90.375 67.125C91.2083 64.6667 92.1875 62.2917 93.3125 60C93.3542 59.9167 93.4167 59.8542 93.5 59.8125Z"
            fill="white" />
    </g>
    <defs>
        <linearGradient id="paint0_linear_1_2" x1="102.453" y1="-5.43681" x2="143.818" y2="147.652"
            gradientUnits="userSpaceOnUse">
            <stop offset="0.019034" stop-color="#616FE9" />
            <stop offset="1" stop-color="#4852A5" />
        </linearGradient>
        <clipPath id="clip0_1_2">
            <rect width="128" height="128" fill="white" />
        </clipPath>
    </defs>
</svg>